<svg width="138" height="146" viewBox="0 0 138 146" fill="none" xmlns="http://www.w3.org/2000/svg">
<rect width="138" height="146" rx="8" fill="#C6BEAC"/>
<path d="M40.7189 82.2316C30.8373 80.0662 24 75.3994 24 69.9916C24 62.52 37.0513 56.4631 53.1509 56.4631C69.2505 56.4632 82.3018 62.52 82.3018 69.9916C82.3018 75.3994 75.4646 80.0662 65.5829 82.2316C75.4646 84.397 82.3018 89.0637 82.3018 94.4716C82.3018 101.943 69.2505 108 53.1509 108C37.0513 108 24 101.943 24 94.4716C24 89.0637 30.8373 84.397 40.7189 82.2316Z" fill="black"/>
<path d="M44.7942 79.5296C34.9126 77.3642 28.0754 72.6975 28.0754 67.2896C28.0754 59.8181 41.1267 53.7612 57.2263 53.7612C73.3259 53.7612 86.3772 59.8181 86.3772 67.2896C86.3772 72.6975 79.5399 77.3642 69.6583 79.5296C79.5399 81.695 86.3772 86.3618 86.3772 91.7696C86.3772 99.2412 73.3259 105.298 57.2263 105.298C41.1267 105.298 28.0754 99.2412 28.0754 91.7696C28.0754 86.3618 34.9126 81.695 44.7942 79.5296Z" fill="black"/>
<path d="M50.2282 75.927C40.3466 73.7616 33.5093 69.0949 33.5093 63.687C33.5093 56.2155 46.5606 50.1586 62.6603 50.1586C78.7599 50.1586 91.8112 56.2155 91.8112 63.687C91.8112 69.0949 84.9739 73.7616 75.0923 75.927C84.9739 78.0925 91.8112 82.7592 91.8112 88.167C91.8112 95.6386 78.7599 101.695 62.6603 101.695C46.5606 101.695 33.5093 95.6386 33.5093 88.167C33.5093 82.7592 40.3466 78.0925 50.2282 75.927Z" fill="black"/>
<path d="M55.6622 72.7749C45.7806 70.6095 38.9433 65.9427 38.9433 60.5349C38.9433 53.0633 51.9946 47.0065 68.0942 47.0065C84.1938 47.0065 97.2451 53.0634 97.2451 60.5349C97.2451 65.9427 90.4079 70.6095 80.5263 72.7749C90.4079 74.9403 97.2451 79.607 97.2451 85.0149C97.2451 92.4864 84.1938 98.5433 68.0942 98.5433C51.9946 98.5433 38.9433 92.4864 38.9433 85.0149C38.9433 79.607 45.7806 74.9403 55.6622 72.7749Z" fill="black"/>
<path d="M61.0962 69.6225C51.2145 67.4571 44.3773 62.7904 44.3773 57.3825C44.3773 49.911 57.4286 43.8541 73.5282 43.8541C89.6278 43.8541 102.679 49.911 102.679 57.3825C102.679 62.7904 95.8419 67.4571 85.9602 69.6225C95.8419 71.7879 102.679 76.4547 102.679 81.8625C102.679 89.3341 89.6278 95.3909 73.5282 95.3909C57.4286 95.3909 44.3773 89.3341 44.3773 81.8625C44.3773 76.4547 51.2145 71.7879 61.0962 69.6225Z" fill="black"/>
<path d="M66.9831 66.9206C57.1015 64.7552 50.2642 60.0884 50.2642 54.6806C50.2642 47.209 63.3155 41.1522 79.4151 41.1522C95.5147 41.1522 108.566 47.209 108.566 54.6806C108.566 60.0884 101.729 64.7552 91.8472 66.9206C101.729 69.086 108.566 73.7527 108.566 79.1606C108.566 86.6321 95.5147 92.689 79.4151 92.689C63.3155 92.689 50.2642 86.6321 50.2642 79.1606C50.2642 73.7527 57.1015 69.086 66.9831 66.9206Z" fill="black"/>
<path d="M72.417 63.7684C62.5354 61.603 55.6982 56.9363 55.6982 51.5284C55.6982 44.0569 68.7495 38 84.8491 38C100.949 38 114 44.0569 114 51.5284C114 56.9363 107.163 61.603 97.2811 63.7684C107.163 65.9338 114 70.6006 114 76.0084C114 83.48 100.949 89.5369 84.8491 89.5369C68.7495 89.5368 55.6982 83.48 55.6982 76.0084C55.6982 70.6006 62.5354 65.9338 72.417 63.7684Z" fill="black"/>
</svg>