<?xml version="1.0" encoding="utf-8"?><svg version="1.1" id="Layer_1" xmlns="http://www.w3.org/2000/svg" xmlns:xlink="http://www.w3.org/1999/xlink" x="0px" y="0px" viewBox="0 0 122.88 116.79" style="enable-background:new 0 0 122.88 116.79" xml:space="preserve"><style type="text/css"><![CDATA[
	.st0{fill:#ABABAB;}
	.st1{fill:#1C3AA9;}
	.st2{fill:#A6A6A6;}
	.st3{fill:#4285F4;}
]]></style><g><path class="st1" d="M101.42,40.78c0-0.59-0.02-1.17-0.04-1.75V5.88l-9.16,9.17C84.72,5.86,73.31,0,60.53,0 c-13.3,0-25.12,6.35-32.59,16.18l15.02,15.18c1.47-2.72,3.56-5.06,6.08-6.83c2.62-2.05,6.34-3.72,11.48-3.72 c0.62,0,1.1,0.07,1.45,0.21c6.37,0.5,11.89,4.02,15.14,9.12L66.48,40.77C79.95,40.72,95.17,40.69,101.42,40.78L101.42,40.78 L101.42,40.78z M101.42,40.78L101.42,40.78L101.42,40.78L101.42,40.78z"/><path class="st3" d="M60.29,0c-0.59,0-1.17,0.02-1.75,0.04H25.38l9.17,9.16C25.37,16.71,19.5,28.12,19.5,40.9 c0,13.3,6.35,25.12,16.18,32.59l15.18-15.02c-2.72-1.47-5.06-3.56-6.83-6.08c-2.05-2.62-3.72-6.34-3.72-11.48 c0-0.62,0.07-1.1,0.21-1.45c0.5-6.37,4.02-11.89,9.12-15.14l10.63,10.63C60.23,21.47,60.19,6.26,60.29,0L60.29,0L60.29,0z M60.29,0 L60.29,0L60.29,0L60.29,0z"/><path class="st0" d="M19.51,40.9c0,0.59,0.02,1.17,0.04,1.75V75.8l9.16-9.16c7.5,9.18,18.91,15.04,31.69,15.04 c13.3,0,25.12-6.35,32.59-16.18L77.97,50.32c-1.47,2.72-3.56,5.06-6.08,6.83c-2.62,2.05-6.34,3.72-11.48,3.72 c-0.62,0-1.1-0.07-1.45-0.21c-6.37-0.5-11.89-4.02-15.14-9.12l10.63-10.63C40.98,40.96,25.76,40.99,19.51,40.9L19.51,40.9 L19.51,40.9z M19.51,40.9L19.51,40.9L19.51,40.9L19.51,40.9z"/><path class="st2" d="M26.41,97.52c-1,0-1.89,0.19-2.68,0.57c-0.79,0.37-1.46,0.9-2.01,1.58c-0.54,0.69-0.96,1.52-1.25,2.5 c-0.28,0.97-0.42,2.06-0.42,3.26v3.46c0,1.21,0.14,2.3,0.42,3.27c0.29,0.97,0.7,1.8,1.24,2.49c0.53,0.69,1.18,1.21,1.93,1.58 c0.76,0.37,1.61,0.55,2.55,0.55c0.97,0,1.82-0.14,2.55-0.42c0.74-0.28,1.36-0.69,1.85-1.22c0.5-0.54,0.88-1.19,1.15-1.96 c0.27-0.76,0.44-1.63,0.49-2.6l-2.38,0c-0.06,0.75-0.16,1.39-0.31,1.92c-0.15,0.52-0.36,0.96-0.64,1.3 c-0.27,0.34-0.64,0.58-1.08,0.75c-0.44,0.15-0.98,0.23-1.62,0.23c-0.69,0-1.27-0.15-1.75-0.45c-0.48-0.31-0.87-0.73-1.17-1.26 c-0.29-0.53-0.51-1.16-0.64-1.87c-0.13-0.71-0.19-1.48-0.19-2.31v-3.49c0-0.88,0.08-1.69,0.23-2.41c0.16-0.72,0.41-1.33,0.73-1.84 c0.33-0.51,0.74-0.9,1.24-1.17c0.5-0.28,1.09-0.42,1.78-0.42c0.58,0,1.07,0.09,1.48,0.26c0.41,0.16,0.76,0.42,1.03,0.77 c0.27,0.34,0.48,0.78,0.63,1.31c0.15,0.53,0.24,1.17,0.3,1.91h2.38c-0.04-1.01-0.2-1.91-0.48-2.69c-0.27-0.78-0.66-1.44-1.15-1.97 c-0.49-0.53-1.09-0.94-1.79-1.21C28.12,97.66,27.32,97.52,26.41,97.52L26.41,97.52L26.41,97.52z M84.58,97.52 c-1,0-1.89,0.19-2.68,0.57c-0.79,0.37-1.46,0.9-2.01,1.58c-0.54,0.69-0.96,1.52-1.25,2.5c-0.28,0.97-0.42,2.06-0.42,3.26v3.46 c0,1.21,0.14,2.3,0.42,3.27c0.29,0.97,0.71,1.8,1.24,2.49c0.53,0.69,1.18,1.21,1.93,1.58c0.76,0.37,1.61,0.55,2.55,0.55 c0.97,0,1.82-0.14,2.55-0.42c0.74-0.28,1.36-0.69,1.86-1.22c0.5-0.54,0.88-1.19,1.15-1.96c0.27-0.76,0.44-1.63,0.49-2.6l-2.38,0 c-0.06,0.75-0.16,1.39-0.31,1.92c-0.15,0.52-0.36,0.96-0.64,1.3c-0.28,0.34-0.63,0.58-1.08,0.75c-0.44,0.15-0.98,0.23-1.62,0.23 c-0.69,0-1.27-0.15-1.75-0.45c-0.48-0.31-0.87-0.73-1.17-1.26c-0.29-0.53-0.51-1.16-0.64-1.87c-0.13-0.71-0.19-1.48-0.19-2.31 v-3.49c0-0.88,0.08-1.69,0.23-2.41c0.16-0.72,0.41-1.33,0.73-1.84s0.74-0.9,1.24-1.17c0.5-0.28,1.09-0.42,1.78-0.42 c0.58,0,1.07,0.09,1.48,0.26c0.41,0.16,0.76,0.42,1.03,0.77c0.28,0.34,0.49,0.78,0.63,1.31c0.14,0.53,0.24,1.17,0.29,1.91h2.38 c-0.04-1.01-0.2-1.91-0.48-2.69c-0.28-0.78-0.66-1.44-1.15-1.97c-0.49-0.53-1.09-0.94-1.79-1.21 C86.29,97.66,85.49,97.52,84.58,97.52L84.58,97.52L84.58,97.52z M39.98,97.78l-6.04,18.76h2.42l1.46-4.89h6.34l1.48,4.89h2.42 l-6.05-18.76H39.98L39.98,97.78z M50.61,97.78v18.76h2.36v-7.34h3.62c0.9,0,1.7-0.13,2.4-0.37c0.7-0.26,1.28-0.63,1.75-1.11 c0.48-0.48,0.84-1.07,1.08-1.78c0.25-0.71,0.37-1.52,0.37-2.42c0-0.83-0.13-1.6-0.37-2.29c-0.24-0.7-0.6-1.31-1.07-1.82 c-0.47-0.51-1.06-0.91-1.77-1.2c-0.7-0.28-1.49-0.43-2.4-0.43L50.61,97.78L50.61,97.78z M64,97.78v2.04h4.92v16.72h2.36V99.81h4.93 v-2.04H64L64,97.78z M93.59,97.78v18.76h2.36v-8.67h7.55v8.67h2.37V97.78h-2.37v8.06h-7.55v-8.06H93.59L93.59,97.78z M114.8,97.78 l-6.04,18.76h2.42l1.46-4.89h6.34l1.48,4.89h2.42l-6.05-18.76H114.8L114.8,97.78z M52.97,99.81h3.62c0.58,0,1.06,0.1,1.47,0.31 c0.41,0.21,0.75,0.48,1,0.82c0.27,0.34,0.46,0.74,0.58,1.2c0.13,0.45,0.19,0.91,0.19,1.39c0,0.53-0.06,1.02-0.19,1.47 c-0.12,0.44-0.31,0.82-0.58,1.15c-0.26,0.32-0.59,0.57-1,0.75c-0.4,0.18-0.89,0.27-1.47,0.27h-3.62V99.81L52.97,99.81z M40.99,101.08l2.56,8.53h-5.11L40.99,101.08L40.99,101.08z M115.81,101.08l2.56,8.53h-5.12L115.81,101.08L115.81,101.08z M4.84,102.34c-0.59,0-1.1,0.15-1.53,0.45c-0.42,0.3-0.77,0.71-1.06,1.22l-0.04-1.42H0v13.94h2.28v-9.97 c0.21-0.59,0.52-1.06,0.91-1.4c0.4-0.34,0.91-0.52,1.53-0.52c0.2,0,0.37,0.01,0.53,0.03c0.15,0.01,0.32,0.03,0.5,0.06l-0.01-2.22 c-0.03-0.02-0.09-0.03-0.17-0.05c-0.07-0.03-0.15-0.05-0.23-0.06s-0.18-0.03-0.27-0.04C4.99,102.35,4.91,102.34,4.84,102.34 L4.84,102.34L4.84,102.34z M12.51,102.34c-0.66,0-1.3,0.12-1.92,0.35c-0.62,0.23-1.17,0.61-1.65,1.15 c-0.47,0.52-0.85,1.21-1.15,2.06c-0.29,0.84-0.44,1.88-0.44,3.1v1.57c0,1.06,0.12,1.99,0.37,2.77c0.25,0.78,0.61,1.43,1.07,1.95 c0.47,0.51,1.04,0.88,1.71,1.13c0.67,0.25,1.42,0.37,2.25,0.37c0.6,0,1.14-0.06,1.61-0.18c0.48-0.12,0.91-0.28,1.28-0.46 c0.37-0.2,0.69-0.42,0.95-0.67c0.27-0.25,0.49-0.51,0.68-0.77l-1.19-1.44c-0.19,0.23-0.39,0.45-0.61,0.64 c-0.21,0.19-0.45,0.36-0.71,0.5c-0.26,0.14-0.54,0.25-0.85,0.32c-0.31,0.08-0.66,0.12-1.04,0.12c-1.06,0-1.87-0.34-2.43-1.02 c-0.56-0.68-0.84-1.76-0.84-3.26v-0.32l7.78,0v-1.33c0-1.06-0.09-2-0.27-2.82c-0.18-0.82-0.47-1.5-0.86-2.06 c-0.4-0.56-0.9-0.98-1.52-1.26C14.13,102.48,13.38,102.34,12.51,102.34L12.51,102.34z M12.51,104.3c0.5,0,0.91,0.09,1.24,0.27 s0.58,0.43,0.77,0.76c0.2,0.33,0.34,0.72,0.42,1.17c0.09,0.45,0.15,0.94,0.18,1.48v0.31H9.64c0.03-0.78,0.13-1.43,0.28-1.95 c0.15-0.51,0.36-0.92,0.61-1.22c0.26-0.31,0.55-0.52,0.89-0.64C11.75,104.36,12.11,104.3,12.51,104.3L12.51,104.3L12.51,104.3z"/></g></svg>